<svg xmlns="http://www.w3.org/2000/svg" xmlns:xlink="http://www.w3.org/1999/xlink" viewBox="0 0 524.34 181.31"><defs><style>.cls-1{fill:url(#linear-gradient);}.cls-2{fill:url(#linear-gradient-2);}.cls-3{fill:url(#linear-gradient-3);}.cls-4{fill:url(#linear-gradient-4);}.cls-5{fill:url(#linear-gradient-5);}.cls-6{fill:url(#linear-gradient-6);}.cls-7{fill:#6e6e6e;}.cls-8{fill:url(#linear-gradient-7);}.cls-9{fill:url(#linear-gradient-8);}.cls-10{fill:url(#linear-gradient-9);}.cls-11{fill:#838383;}.cls-12{fill:#5e5e5e;}</style><linearGradient id="linear-gradient" x1="235.55" y1="20.09" x2="235.55" y2="107.97" gradientUnits="userSpaceOnUse"><stop offset="0" stop-color="#747474"/><stop offset="0.32" stop-color="#262626"/><stop offset="0.69" stop-color="#2f2f2f"/><stop offset="1" stop-color="#747474"/></linearGradient><linearGradient id="linear-gradient-2" x1="317.03" y1="20.09" x2="317.03" y2="107.97" xlink:href="#linear-gradient"/><linearGradient id="linear-gradient-3" x1="398.57" y1="20.09" x2="398.57" y2="107.97" xlink:href="#linear-gradient"/><linearGradient id="linear-gradient-4" x1="484.6" y1="20.09" x2="484.6" y2="107.97" xlink:href="#linear-gradient"/><linearGradient id="linear-gradient-5" x1="4.54" y1="127.64" x2="115.57" y2="-0.86" gradientUnits="userSpaceOnUse"><stop offset="0" stop-color="#747474"/><stop offset="0.32" stop-color="#303030"/><stop offset="0.69" stop-color="#2a2a2a"/><stop offset="1" stop-color="#747474"/></linearGradient><linearGradient id="linear-gradient-6" x1="-1.71" y1="79.22" x2="86.71" y2="-4.81" gradientUnits="userSpaceOnUse"><stop offset="0" stop-color="#b2b2b2"/><stop offset="0.27" stop-color="#5e5e5e"/><stop offset="0.73" stop-color="#5e5e5e"/><stop offset="1" stop-color="#b2b2b2"/></linearGradient><linearGradient id="linear-gradient-7" x1="126.41" y1="17.96" x2="169.99" y2="123" gradientUnits="userSpaceOnUse"><stop offset="0" stop-color="#3b3b3b"/><stop offset="0.32" stop-color="#2a2a2a"/><stop offset="0.69" stop-color="#2a2a2a"/></linearGradient><linearGradient id="linear-gradient-8" x1="39.12" y1="114.84" x2="156.11" y2="154.38" gradientUnits="userSpaceOnUse"><stop offset="0" stop-color="#2a2a2a"/><stop offset="0.32" stop-color="#303030"/><stop offset="0.69" stop-color="#424242"/><stop offset="1" stop-color="#747474"/></linearGradient><linearGradient id="linear-gradient-9" x1="30.78" y1="145.97" x2="147.22" y2="178.37" gradientUnits="userSpaceOnUse"><stop offset="0" stop-color="#5e5e5e"/><stop offset="0.73" stop-color="#5e5e5e"/><stop offset="1" stop-color="#b2b2b2"/></linearGradient></defs><g id="Layer_2" data-name="Layer 2"><g id="Слой_1" data-name="Слой 1"><path class="cls-1" d="M205.18,83a67.57,67.57,0,0,0,25.43,5.24c9,0,15.6-2.62,15.6-6.86s-6.59-6.49-17.64-9.74c-16.56-5-27.46-12.85-27.46-25.33,0-14.85,14.53-26.33,39.23-26.33,11.77,0,19.5,1.66,26,4.16l-5,18.18a58.29,58.29,0,0,0-21.35-4c-8,0-14.12,2.49-14.12,6.24,0,4.24,7,6,19.35,10,17.58,5.49,25.57,13.6,25.57,25.33,0,14.47-13.22,27-41.85,27-11.77,0-23.25-2.74-28.77-5.24Z"/><path class="cls-2" d="M305.36,86.27l-4.74,19.47H277.29l24.45-84.1h29.95l25.08,84.1H332.44l-5.37-19.47ZM324,69.55l-3.87-15.1c-1.25-4.74-2.87-11.6-4.12-16.59h-.25c-1.25,5-2.5,12-3.74,16.72l-3.62,15Z"/><path class="cls-3" d="M436.75,101.74a98.85,98.85,0,0,1-28.95,4.87c-16.59,0-27.82-4.12-35.44-11.35-7.86-7.49-12-18.35-12-30.45.12-29.2,21.83-44,49.16-44,11.35,0,20,2,24.33,4.12l-4.49,18c-4.74-2-10.36-3.5-20-3.5-13.85,0-25.33,7.24-25.33,24.34,0,15.72,10.11,24.83,24,24.83a27.24,27.24,0,0,0,7-.75V73.29H403.81V55.83h32.94Z"/><path class="cls-4" d="M472.93,86.27l-4.74,19.47H444.86l24.45-84.1h29.95l25.08,84.1H500l-5.37-19.47Zm18.59-16.72-3.86-15.1c-1.25-4.74-2.87-11.6-4.12-16.59h-.25c-1.25,5-2.5,12-3.74,16.72l-3.62,15Z"/><path class="cls-5" d="M23.44,141.34S3.06,142,6.36,104.12C12.19,90.6,39.43,31,108.09.62c8-2.29,20.06,4.47,24.89,9.58-17,3.78-44,21.37-71.09,57.68C33.68,105.64,27.93,114.71,23.44,141.34Z"/><path class="cls-6" d="M97,.13C78-.6,65.6,1.59,53.18,10.23S22.57,30.36,3.46,74.61a113.56,113.56,0,0,0-3,13.84,9.67,9.67,0,0,1,.92-.62,9.67,9.67,0,0,0-.92.62c-.12.73-.25,1.47-.37,2.2-.27,1.88-.14,3.09,2.15,3.42a3.3,3.3,0,0,0,2.61-1.5C18.56,67.83,49.89,24.05,97,.13Z"/><path class="cls-7" d="M.69,100.54c0,.24,0,.37,0,.37S.67,100.68.69,100.54Z"/><path class="cls-7" d="M.7,100.52v0Z"/><path class="cls-8" d="M115.08,21.84S127,12.2,137.21,13.23c15,9.08,43.62,59.33,33.38,111.69-7.81,7-22.21.32-22.21.32-3.93-18.88-2.23-40.53-13.22-69.32C124.39,27.73,115.08,21.84,115.08,21.84Z"/><path class="cls-9" d="M45.61,101.39s33.65,40.22,123.52,30c-1.51,10.43-12.67,22.19-25.73,27.74s-93.85,1.52-108.29-32.45C31.31,116.23,39.61,108.48,45.61,101.39Z"/><path class="cls-10" d="M30.36,138.38s.46,26.71,47.13,37.73c46.49,11,65.84,2.4,70.44-5.59l4.56-7.93a118.92,118.92,0,0,1-33.69,3.55c-13.46-.67-58.49-4.68-76.69-22.41C31.55,133.47,30.36,138.38,30.36,138.38Z"/><path class="cls-11" d="M94.56,38.63s14-17.54,17.5-13.76,17.84,23.18,23.1,50.77c5.38,28.2,7.8,42.48,2.42,49s-9.91-.51-14.56-10.33S115.54,58.94,94.56,38.63Z"/><path class="cls-12" d="M207.73,127h-7.39v-3.53h19.4V127h-7.38V157.9h-4.63Z"/><path class="cls-12" d="M243.84,141.54H233.68v12.93h11.54v3.43H229.06V123.45H244.5v3.42H233.68v11.35h10.16Z"/><path class="cls-12" d="M272.85,157.28a15.07,15.07,0,0,1-5.83.92c-7.87,0-13.57-5.41-13.57-17.12,0-13.6,7.93-17.94,14.35-17.94a11.22,11.22,0,0,1,5,.87l-1,3.32a10,10,0,0,0-4-.71c-4.32,0-9.43,3.58-9.43,14.1s4.57,14,9.56,14a12.34,12.34,0,0,0,4.2-.72Z"/><path class="cls-12" d="M287,123.45v14.77h11.35V123.45H303V157.9h-4.63V141.8H287v16.1h-4.63V123.45Z"/><path class="cls-12" d="M315,157.9V123.45h4.33l7.45,16.15c1.68,3.73,3.78,8.28,5.16,12h.12c-.36-5.42-.54-9.86-.54-15.85V123.45h4.15V157.9h-4.33l-7.69-16.56a100.63,100.63,0,0,1-4.86-11.71h-.12c.36,4.6.48,9,.48,16.36V157.9Z"/><path class="cls-12" d="M369,140.41c0,12.94-5.17,17.9-11.72,17.9-6.73,0-11.23-6.09-11.23-17.69,0-11.4,4.87-17.58,11.89-17.58S369,129.43,369,140.41Zm-18.14.26c0,7.1,1.62,14.16,6.79,14.16s6.54-7.52,6.54-14.26c0-6.44-1.38-14-6.61-14S350.83,133.67,350.83,140.67Z"/><path class="cls-12" d="M379.3,123.45h4.63v31.12h11.35v3.33h-16Z"/><path class="cls-12" d="M423.52,140.41c0,12.94-5.17,17.9-11.72,17.9-6.73,0-11.23-6.09-11.23-17.69,0-11.4,4.87-17.58,11.89-17.58S423.52,129.43,423.52,140.41Zm-18.15.26c0,7.1,1.63,14.16,6.79,14.16s6.55-7.52,6.55-14.26c0-6.44-1.38-14-6.61-14S405.37,133.67,405.37,140.67Z"/><path class="cls-12" d="M453.74,157a23.78,23.78,0,0,1-7.15,1.17c-3.55,0-6.85-.81-9.56-3.32-2.94-2.66-4.92-7.41-4.86-13.75.06-13.44,8.11-18,15.26-18a14.3,14.3,0,0,1,5.71,1l-1,3.37a11.48,11.48,0,0,0-4.62-.81c-5.05,0-10.52,3.42-10.52,14.1s4.75,14.06,9.62,14.06a6.54,6.54,0,0,0,2.82-.41V143.18h-5.23v-3.27h9.56Z"/><path class="cls-12" d="M469.47,123.45V157.9h-4.62V123.45Z"/><path class="cls-12" d="M496.39,141.54H486.23v12.93h11.54v3.43H481.61V123.45h15.44v3.42H486.23v11.35h10.16Z"/><path class="cls-12" d="M506.78,153.35a13.27,13.27,0,0,0,5.77,1.38c4.26,0,6.79-2.35,6.79-5.83,0-3.17-2.17-5.11-5.35-7.15-3.25-1.89-7.63-5.11-7.63-9.56,0-5.21,4.26-9,10.69-9a11.68,11.68,0,0,1,5.65,1.28l-1.08,3.37a9.62,9.62,0,0,0-4.81-1.17c-4,0-5.89,2.55-5.89,4.9,0,3.43,2.11,4.76,5.95,7.11,4.87,2.91,7,6.08,7,9.91,0,5.93-4.86,9.66-11.35,9.66a15.16,15.16,0,0,1-6.79-1.48Z"/></g></g></svg>