<?xml version="1.0" encoding="UTF-8" standalone="no"?>
<svg
   xmlns:dc="http://purl.org/dc/elements/1.1/"
   xmlns:cc="http://creativecommons.org/ns#"
   xmlns:rdf="http://www.w3.org/1999/02/22-rdf-syntax-ns#"
   xmlns:svg="http://www.w3.org/2000/svg"
   xmlns="http://www.w3.org/2000/svg"
   viewBox="0 0 498.14172 147.77946"
   height="147.77946"
   width="498.14172"
   xml:space="preserve"
   id="svg2"
   version="1.1"><metadata
     id="metadata8"><rdf:RDF><cc:Work
         rdf:about=""><dc:format>image/svg+xml</dc:format><dc:type
           rdf:resource="http://purl.org/dc/dcmitype/StillImage" /></cc:Work></rdf:RDF></metadata><defs
     id="defs6"><clipPath
       id="clipPath22"
       clipPathUnits="userSpaceOnUse"><path
         style="clip-rule:evenodd"
         id="path20"
         d="m 124.753,42.2833 c 4.6089,-2.0257 12.1394,-4.0533 19.6711,-4.0533 6.9687,0 12.0707,2.0276 12.0707,5.3096 0,3.185 -5.102,5.0193 -13.6451,7.5282 -12.8137,3.8605 -21.2434,9.9417 -21.2434,19.5945 0,11.4871 11.2399,20.367 30.3491,20.367 9.1046,0 15.0778,-1.2804 20.1359,-3.2111 L 168.2555,73.751 c -3.2613,1.2543 -8.8818,3.0889 -16.5226,3.0889 -6.1838,0 -10.9219,-1.9307 -10.9219,-4.8266 0,-3.2819 5.4105,-4.6329 14.9667,-7.7216 13.6029,-4.2468 19.7841,-10.5213 19.7841,-19.5944 0,-11.1958 -10.2294,-20.8486 -32.3736,-20.8486 -9.1061,0 -17.9862,2.1237 -22.2571,4.0536 z" /></clipPath><linearGradient
       id="linearGradient32"
       spreadMethod="pad"
       gradientUnits="userSpaceOnUse"
       y2="22.93"
       x2="148.25"
       y1="90.919998"
       x1="148.25"><stop
         id="stop24"
         offset="0"
         style="stop-opacity:1;stop-color:#000000" /><stop
         id="stop26"
         offset="0.32"
         style="stop-opacity:1;stop-color:#000000" /><stop
         id="stop28"
         offset="0.69"
         style="stop-opacity:1;stop-color:#000000" /><stop
         id="stop30"
         offset="1"
         style="stop-opacity:1;stop-color:#000000" /></linearGradient><clipPath
       id="clipPath42"
       clipPathUnits="userSpaceOnUse"><path
         style="clip-rule:evenodd"
         id="path40"
         d="m 216.6327,52.6567 -2.992,11.6787 c -0.9643,3.6689 -2.2192,8.9768 -3.1853,12.8367 h -0.1933 c -0.9649,-3.8599 -1.931,-9.2645 -2.8959,-12.9331 l -2.7983,-11.5823 z m 5.9845,37.0641 H 199.4511 L 180.5338,24.6631 h 18.0479 l 3.6697,15.0602 h 16.7939 l 4.1516,-15.0602 h 18.8226 z" /></clipPath><linearGradient
       id="linearGradient52"
       spreadMethod="pad"
       gradientUnits="userSpaceOnUse"
       y2="22.93"
       x2="211.28"
       y1="90.919998"
       x1="211.28"><stop
         id="stop44"
         offset="0"
         style="stop-opacity:1;stop-color:#000000" /><stop
         id="stop46"
         offset="0.32"
         style="stop-opacity:1;stop-color:#000000" /><stop
         id="stop48"
         offset="0.69"
         style="stop-opacity:1;stop-color:#000000" /><stop
         id="stop50"
         offset="1"
         style="stop-opacity:1;stop-color:#000000" /></linearGradient><clipPath
       id="clipPath62"
       clipPathUnits="userSpaceOnUse"><path
         style="clip-rule:evenodd"
         id="path60"
         d="m 303.8856,27.756 c -4.8259,-1.6452 -13.8988,-3.7678 -22.3925,-3.7678 -12.8367,0 -21.5263,3.1853 -27.4136,8.7831 -6.0798,5.7926 -9.2653,14.1894 -9.2653,23.5525 0.0949,22.5862 16.8919,34.0731 38.0299,34.0731 8.7823,0 15.4442,-1.5444 18.8231,-3.1853 l -3.4758,-13.8994 c -3.6683,1.5443 -8.0113,2.7022 -15.4451,2.7022 -10.7124,0 -19.5931,-5.5978 -19.5931,-18.8212 0,-12.1617 7.8177,-19.2075 18.5332,-19.2075 2.3156,0 4.6315,0.2885 5.4062,0.5782 v 11.1955 h -8.6879 v 13.5147 h 25.4809 z" /></clipPath><linearGradient
       id="linearGradient72"
       spreadMethod="pad"
       gradientUnits="userSpaceOnUse"
       y2="22.93"
       x2="274.35001"
       y1="90.919998"
       x1="274.35001"><stop
         id="stop64"
         offset="0"
         style="stop-opacity:1;stop-color:#000000" /><stop
         id="stop66"
         offset="0.32"
         style="stop-opacity:1;stop-color:#000000" /><stop
         id="stop68"
         offset="0.69"
         style="stop-opacity:1;stop-color:#000000" /><stop
         id="stop70"
         offset="1"
         style="stop-opacity:1;stop-color:#000000" /></linearGradient><clipPath
       id="clipPath82"
       clipPathUnits="userSpaceOnUse"><path
         style="clip-rule:evenodd"
         id="path80"
         d="m 348.2189,52.6567 -2.9908,11.6787 c -0.9646,3.6689 -2.2195,8.9768 -3.1853,12.8367 h -0.1933 c -0.9629,-3.8599 -1.931,-9.2645 -2.8936,-12.9331 l -2.8012,-11.5823 z m 5.9857,37.0641 H 331.0387 L 312.1206,24.6631 h 18.0499 l 3.6666,15.0602 h 16.7975 l 4.1494,-15.0602 h 18.8214 z" /></clipPath><linearGradient
       id="linearGradient92"
       spreadMethod="pad"
       gradientUnits="userSpaceOnUse"
       y2="22.93"
       x2="342.85999"
       y1="90.919998"
       x1="342.85999"><stop
         id="stop84"
         offset="0"
         style="stop-opacity:1;stop-color:#000000" /><stop
         id="stop86"
         offset="0.32"
         style="stop-opacity:1;stop-color:#000000" /><stop
         id="stop88"
         offset="0.69"
         style="stop-opacity:1;stop-color:#000000" /><stop
         id="stop90"
         offset="1"
         style="stop-opacity:1;stop-color:#000000" /></linearGradient><clipPath
       id="clipPath104"
       clipPathUnits="userSpaceOnUse"><path
         style="clip-rule:evenodd"
         id="path102"
         d="m 14.298,24.5078 c 0,0 -12.4322,-0.4113 -10.4194,22.6993 3.5555,8.2417 20.1688,44.6232 62.0448,63.1216 4.8795,1.4006 12.2397,-2.7219 15.1835,-5.8383 C 70.7134,102.1825 54.2976,91.4553 37.7481,69.3094 20.5398,46.2804 17.0382,40.7455 14.298,24.5078 Z" /></clipPath><linearGradient
       id="linearGradient114"
       spreadMethod="pad"
       gradientUnits="userSpaceOnUse"
       y2="109.03"
       x2="70.970001"
       y1="33.369999"
       x1="6.27"><stop
         id="stop106"
         offset="0"
         style="stop-opacity:1;stop-color:#000000" /><stop
         id="stop108"
         offset="0.32"
         style="stop-opacity:1;stop-color:#000000" /><stop
         id="stop110"
         offset="0.69"
         style="stop-opacity:1;stop-color:#000000" /><stop
         id="stop112"
         offset="1"
         style="stop-opacity:1;stop-color:#000000" /></linearGradient><clipPath
       id="clipPath124"
       clipPathUnits="userSpaceOnUse"><path
         style="clip-rule:evenodd"
         id="path122"
         d="M 59.1868,110.6303 C 47.5727,111.0728 40.013,109.7385 32.4394,104.47 24.7791,99.1414 13.7693,92.1946 2.1129,65.2025 1.5625,63.6185 0.9034,60.3125 0.2897,56.7612 0.4416,56.8794 0.6199,57.0056 0.8461,57.1425 0.6199,57.0056 0.4416,56.8794 0.2897,56.7612 0.2134,56.317 0.1372,55.8675 0.0609,55.4196 c -0.161,-1.1463 -0.0827,-1.8811 1.3131,-2.086 0.568,-0.0068 1.14,0.3146 1.5916,0.9161 8.3548,15.0874 27.4618,41.7932 56.2212,56.3806" /></clipPath><linearGradient
       id="linearGradient134"
       spreadMethod="pad"
       gradientUnits="userSpaceOnUse"
       y2="112.89"
       x2="52.91"
       y1="62.290001"
       x1="-0.83999997"><stop
         id="stop126"
         offset="0"
         style="stop-opacity:1;stop-color:#000000" /><stop
         id="stop128"
         offset="0.27"
         style="stop-opacity:1;stop-color:#000000" /><stop
         id="stop130"
         offset="0.73"
         style="stop-opacity:1;stop-color:#000000" /><stop
         id="stop132"
         offset="1"
         style="stop-opacity:1;stop-color:#000000" /></linearGradient><clipPath
       id="clipPath148"
       clipPathUnits="userSpaceOnUse"><path
         style="clip-rule:evenodd"
         id="path146"
         d="m 70.1898,97.3902 c 0,0 7.2462,5.8791 13.4966,5.2475 C 92.8491,97.0988 110.2935,66.4571 104.046,34.5169 99.2837,30.2647 90.4975,34.321 90.4975,34.321 88.1059,45.8405 89.1397,59.0431 82.4355,76.6043 75.871,93.7942 70.1898,97.3902 70.1898,97.3902 Z" /></clipPath><linearGradient
       id="linearGradient158"
       spreadMethod="pad"
       gradientUnits="userSpaceOnUse"
       y2="39.799999"
       x2="95.949997"
       y1="98.879997"
       x1="75.510002"><stop
         id="stop150"
         offset="0"
         style="stop-opacity:1;stop-color:#000000" /><stop
         id="stop152"
         offset="0.32"
         style="stop-opacity:1;stop-color:#000000" /><stop
         id="stop154"
         offset="0.69"
         style="stop-opacity:1;stop-color:#000000" /><stop
         id="stop156"
         offset="1"
         style="stop-opacity:1;stop-color:#000000" /></linearGradient><clipPath
       id="clipPath168"
       clipPathUnits="userSpaceOnUse"><path
         style="clip-rule:evenodd"
         id="path166"
         d="m 27.8161,48.8716 c 0,0 20.5251,-24.533 75.3415,-18.3192 C 102.2318,24.192 95.4266,17.0235 87.4638,13.638 79.4344,10.2234 30.2219,12.7071 21.4169,33.4293 c -2.3185,6.3876 2.7402,11.1191 6.3992,15.4423" /></clipPath><linearGradient
       id="linearGradient178"
       spreadMethod="pad"
       gradientUnits="userSpaceOnUse"
       y2="20.030001"
       x2="95.529999"
       y1="41.560001"
       x1="27.09"><stop
         id="stop170"
         offset="0"
         style="stop-opacity:1;stop-color:#000000" /><stop
         id="stop172"
         offset="0.32"
         style="stop-opacity:1;stop-color:#000000" /><stop
         id="stop174"
         offset="0.69"
         style="stop-opacity:1;stop-color:#000000" /><stop
         id="stop176"
         offset="1"
         style="stop-opacity:1;stop-color:#000000" /></linearGradient><clipPath
       id="clipPath188"
       clipPathUnits="userSpaceOnUse"><path
         style="clip-rule:evenodd"
         id="path186"
         d="m 93.009,11.5407 v 3e-4 c 0,0 -9.7166,-2.7054 -20.5484,-2.1609 -8.2134,0.4088 -35.674,2.8542 -46.7764,13.6636 -6.4426,6.2631 -7.164,3.2686 -7.164,3.2686 v 0 c 0,0 0.2769,-16.2947 28.7407,-23.0116 28.3575,-6.6926 40.1593,-1.4653 42.9647,3.4078 z" /></clipPath><linearGradient
       id="linearGradient196"
       spreadMethod="pad"
       gradientUnits="userSpaceOnUse"
       y2="6.6100001"
       x2="89.790001"
       y1="19.99"
       x1="18.77"><stop
         id="stop190"
         offset="0"
         style="stop-opacity:1;stop-color:#000000" /><stop
         id="stop192"
         offset="0.73"
         style="stop-opacity:1;stop-color:#000000" /><stop
         id="stop194"
         offset="1"
         style="stop-opacity:1;stop-color:#000000" /></linearGradient></defs><g
     transform="matrix(1.3333333,0,0,-1.3333333,0,147.77947)"
     id="g10"><g
       id="g12"><g
         id="g14"><g
           id="g16"><g
             clip-path="url(#clipPath22)"
             id="g18"><path
               id="path34"
               style="fill:url(#linearGradient32);fill-rule:evenodd;stroke:none"
               d="m 124.753,42.2833 c 4.6089,-2.0257 12.1394,-4.0533 19.6711,-4.0533 6.9687,0 12.0707,2.0276 12.0707,5.3096 0,3.185 -5.102,5.0193 -13.6451,7.5282 -12.8137,3.8605 -21.2434,9.9417 -21.2434,19.5945 0,11.4871 11.2399,20.367 30.3491,20.367 9.1046,0 15.0778,-1.2804 20.1359,-3.2111 L 168.2555,73.751 c -3.2613,1.2543 -8.8818,3.0889 -16.5226,3.0889 -6.1838,0 -10.9219,-1.9307 -10.9219,-4.8266 0,-3.2819 5.4105,-4.6329 14.9667,-7.7216 13.6029,-4.2468 19.7841,-10.5213 19.7841,-19.5944 0,-11.1958 -10.2294,-20.8486 -32.3736,-20.8486 -9.1061,0 -17.9862,2.1237 -22.2571,4.0536 z" /></g></g><g
           id="g36"><g
             clip-path="url(#clipPath42)"
             id="g38"><path
               id="path54"
               style="fill:url(#linearGradient52);fill-rule:evenodd;stroke:none"
               d="m 216.6327,52.6567 -2.992,11.6787 c -0.9643,3.6689 -2.2192,8.9768 -3.1853,12.8367 h -0.1933 c -0.9649,-3.8599 -1.931,-9.2645 -2.8959,-12.9331 l -2.7983,-11.5823 z m 5.9845,37.0641 H 199.4511 L 180.5338,24.6631 h 18.0479 l 3.6697,15.0602 h 16.7939 l 4.1516,-15.0602 h 18.8226 z" /></g></g><g
           id="g56"><g
             clip-path="url(#clipPath62)"
             id="g58"><path
               id="path74"
               style="fill:url(#linearGradient72);fill-rule:evenodd;stroke:none"
               d="m 303.8856,27.756 c -4.8259,-1.6452 -13.8988,-3.7678 -22.3925,-3.7678 -12.8367,0 -21.5263,3.1853 -27.4136,8.7831 -6.0798,5.7926 -9.2653,14.1894 -9.2653,23.5525 0.0949,22.5862 16.8919,34.0731 38.0299,34.0731 8.7823,0 15.4442,-1.5444 18.8231,-3.1853 l -3.4758,-13.8994 c -3.6683,1.5443 -8.0113,2.7022 -15.4451,2.7022 -10.7124,0 -19.5931,-5.5978 -19.5931,-18.8212 0,-12.1617 7.8177,-19.2075 18.5332,-19.2075 2.3156,0 4.6315,0.2885 5.4062,0.5782 v 11.1955 h -8.6879 v 13.5147 h 25.4809 z" /></g></g><g
           id="g76"><g
             clip-path="url(#clipPath82)"
             id="g78"><path
               id="path94"
               style="fill:url(#linearGradient92);fill-rule:evenodd;stroke:none"
               d="m 348.2189,52.6567 -2.9908,11.6787 c -0.9646,3.6689 -2.2195,8.9768 -3.1853,12.8367 h -0.1933 c -0.9629,-3.8599 -1.931,-9.2645 -2.8936,-12.9331 l -2.8012,-11.5823 z m 5.9857,37.0641 H 331.0387 L 312.1206,24.6631 h 18.0499 l 3.6666,15.0602 h 16.7975 l 4.1494,-15.0602 h 18.8214 z" /></g></g></g><g
         id="g96"><g
           id="g98"><g
             clip-path="url(#clipPath104)"
             id="g100"><path
               id="path116"
               style="fill:url(#linearGradient114);fill-rule:evenodd;stroke:none"
               d="m 14.298,24.5078 c 0,0 -12.4322,-0.4113 -10.4194,22.6993 3.5555,8.2417 20.1688,44.6232 62.0448,63.1216 4.8795,1.4006 12.2397,-2.7219 15.1835,-5.8383 C 70.7134,102.1825 54.2976,91.4553 37.7481,69.3094 20.5398,46.2804 17.0382,40.7455 14.298,24.5078 Z" /></g></g><g
           id="g118"><g
             clip-path="url(#clipPath124)"
             id="g120"><path
               id="path136"
               style="fill:url(#linearGradient134);fill-rule:evenodd;stroke:none"
               d="M 59.1868,110.6303 C 47.5727,111.0728 40.013,109.7385 32.4394,104.47 24.7791,99.1414 13.7693,92.1946 2.1129,65.2025 1.5625,63.6185 0.9034,60.3125 0.2897,56.7612 0.4416,56.8794 0.6199,57.0056 0.8461,57.1425 0.6199,57.0056 0.4416,56.8794 0.2897,56.7612 0.2134,56.317 0.1372,55.8675 0.0609,55.4196 c -0.161,-1.1463 -0.0827,-1.8811 1.3131,-2.086 0.568,-0.0068 1.14,0.3146 1.5916,0.9161 8.3548,15.0874 27.4618,41.7932 56.2212,56.3806" /></g></g><path
           id="path138"
           style="fill:#909090;fill-opacity:1;fill-rule:nonzero;stroke:none"
           d="M 0.4243,49.3894 C 0.4048,49.2435 0.3934,49.1618 0.3934,49.1618 c 0.006,0.0661 0.0171,0.1423 0.0309,0.2276" /><path
           id="path140"
           style="fill:#909090;fill-opacity:1;fill-rule:nonzero;stroke:none"
           d="m 0.4249,49.3982 c 0,-0.0045 -6e-4,-0.0082 -6e-4,-0.0088 0,6e-4 6e-4,0.0057 6e-4,0.0088" /><g
           id="g142"><g
             clip-path="url(#clipPath148)"
             id="g144"><path
               id="path160"
               style="fill:url(#linearGradient158);fill-rule:evenodd;stroke:none"
               d="m 70.1898,97.3902 c 0,0 7.2462,5.8791 13.4966,5.2475 C 92.8491,97.0988 110.2935,66.4571 104.046,34.5169 99.2837,30.2647 90.4975,34.321 90.4975,34.321 88.1059,45.8405 89.1397,59.0431 82.4355,76.6043 75.871,93.7942 70.1898,97.3902 70.1898,97.3902 Z" /></g></g><g
           id="g162"><g
             clip-path="url(#clipPath168)"
             id="g164"><path
               id="path180"
               style="fill:url(#linearGradient178);fill-rule:evenodd;stroke:none"
               d="m 27.8161,48.8716 c 0,0 20.5251,-24.533 75.3415,-18.3192 C 102.2318,24.192 95.4266,17.0235 87.4638,13.638 79.4344,10.2234 30.2219,12.7071 21.4169,33.4293 c -2.3185,6.3876 2.7402,11.1191 6.3992,15.4423" /></g></g><g
           id="g182"><g
             clip-path="url(#clipPath188)"
             id="g184"><path
               id="path198"
               style="fill:url(#linearGradient196);fill-rule:evenodd;stroke:none"
               d="m 93.009,11.5407 v 3e-4 c 0,0 -9.7166,-2.7054 -20.5484,-2.1609 -8.2134,0.4088 -35.674,2.8542 -46.7764,13.6636 -6.4426,6.2631 -7.164,3.2686 -7.164,3.2686 v 0 c 0,0 0.2769,-16.2947 28.7407,-23.0116 28.3575,-6.6926 40.1593,-1.4653 42.9647,3.4078 z" /></g></g><path
           id="path200"
           style="fill:#2b2b2a;fill-opacity:1;fill-rule:nonzero;stroke:none"
           d="m 57.6723,87.15 c 0,0 8.5331,10.6937 10.6784,8.3886 C 70.5013,93.2272 79.2283,81.4045 82.4366,64.5772 85.7151,47.3729 87.1943,38.67 83.9151,34.6819 80.6117,30.6635 77.8703,34.992 75.0328,40.9842 72.2132,46.9361 70.4687,74.7581 57.6723,87.15" /></g></g></g></svg>